<svg width="433" height="486" viewBox="0 0 433 486" fill="none" xmlns="http://www.w3.org/2000/svg">
  <!-- Top arrow pointing right -->
  <path d="M297.403 285.053C300.976 285.053 315.013 270.902 320.473 265.699C342.501 244.758 432.868 158.164 432.868 150.002C432.868 145.7 338.112 62.9512 303.077 31.5614C299.232 28.1166 293 25.2863 287.854 25.2577C97.7429 23.9141 75.7586 14.8802 16.8526 0.486094C8.06178 -1.65802 5.80332 3.50212 6.40367 11.807C10.4775 68.5688 73.2571 140.197 139.239 149.602C160.079 152.575 181.549 151.389 202.733 151.603C231.135 151.889 259.538 151.918 287.926 151.503C295.845 151.389 298.618 153.433 298.532 161.795C298.117 199.331 295.687 285.039 297.388 285.039" fill="#F48FB1"/>
  <!-- Bottom arrow pointing left -->
  <path d="M135.465 200.518C131.877 200.518 117.855 214.669 112.394 219.872C90.3672 240.813 0 327.406 0 335.568C0 339.871 94.7555 422.619 129.79 454.009C133.635 457.454 139.868 460.27 145.014 460.313C335.125 461.656 357.109 470.69 416.015 485.084C424.806 487.228 427.065 482.068 426.464 473.763C422.39 416.987 359.611 345.374 293.629 335.968C272.788 332.995 251.319 334.182 230.121 333.967C201.718 333.681 173.316 333.653 144.928 334.067C137.009 334.182 134.236 332.137 134.322 323.761C134.736 286.225 137.166 200.518 135.479 200.518" fill="#F48FB1"/>
  <!-- Terminal prompt >_ in center -->
  <polyline points="178,230 208,248 178,266" stroke="#F48FB1" stroke-width="14" stroke-linecap="round" stroke-linejoin="round" fill="none"/>
  <line x1="220" y1="266" x2="260" y2="266" stroke="#F48FB1" stroke-width="14" stroke-linecap="round"/>
</svg>
